<svg version="1.0" xmlns="http://www.w3.org/2000/svg" width="90" height="90" fill="currentColor" viewBox="0 0 2048 2048">
  <path d="M986.5 1.1C884.5 5.5 792.9 22 700.1 52.9 532.6 108.7 382.3 207.3 263 339.6 120.4 497.8 30.9 696.5 7.1 908 1.6 956.7-.8 1011.7.9 1053.7c2.7 66.7 8.9 120.4 20.7 177.6C85 1539 288.3 1802.1 570.5 1941.5c121.5 60 244.8 93.2 385.5 103.7 23.6 1.8 112.4 1.8 136 0 37.9-2.8 69.2-6.6 103.2-12.3 154-25.7 302.4-88 429.1-180.1 236.8-172.3 388.2-434.8 417.6-723.8 4-39.1 4.6-53.5 4.6-105 0-62.8-2.1-93.9-10.1-149-25.6-177.1-98.3-345.4-210.2-486.5-78.9-99.5-175.6-183.5-285.7-248.2-124.4-73.1-267.6-120-410.5-134.2-53.9-5.4-97.9-6.9-143.5-5zm-155.1 502c3.4 1.6 18 28.6 31 57.4 3 6.6 6.1 12.4 7 13 1 .6 8.6 0 23.3-1.8 50.8-6.3 79.1-8.1 130.8-8.1 51.9 0 89.8 2.5 136.5 8.9 20.5 2.8 19 3.3 24-8.5 7.2-17 28.3-58.1 30.7-60 2.9-2.3 5-2.4 12-1 2.6.5 12.9 2.6 22.8 4.5 58.4 11.6 123.3 30.3 179.8 51.9 28.2 10.8 62 25.3 67.5 29 3.7 2.5 7.1 6.9 17.9 23.6 136.1 209.2 199.8 429.8 193.2 669-1.4 51-4 84.6-7.1 90-2.1 3.9-10.2 9.9-40.3 30.2-70 47.3-140 84.3-216.5 114.6-34 13.4-82.7 30.2-87.7 30.2-3 0-5.9-3.4-18-21.2-19.5-28.8-39.8-62.4-52.3-86.7-7.3-14.1-7.8-13.4 16-23.2 23.5-9.6 39.7-17.1 58-26.6 22.7-11.8 32-17.5 32-19.5 0-.9-2-3.2-4.5-5-2.4-1.8-4.4-4-4.5-4.9 0-.8-1.2-2.7-2.7-4.1-9-8.2-11.8-8-35.9 2.3-108.8 46.7-220.1 69-332.9 66.5-61.9-1.3-78.7-2.2-100.5-5.5-56.3-8.5-106.2-20.8-159-39.3-15.7-5.5-50.7-19.4-63.4-25.2-4.3-2-8.8-3.6-9.9-3.6s-5 2.4-8.6 5.3-8.5 6.8-10.8 8.6c-2.4 1.8-4.3 4-4.3 5 0 1.1 2.5 3.2 7 5.7 4.9 2.7 6.5 4.1 5.3 4.5-2.3.8 45.7 24.8 69.7 34.8 26.3 11 26.6 11.1 26.2 14.1-.7 6-27 51.7-48.7 84.5-15.1 22.9-20.5 30-23.2 30.7-3.5.9-43.4-12.4-79.1-26.3-9.5-3.7-18-6.5-19-6.2-2.1.5-31.9-12.2-57.7-24.6-55.2-26.5-101.6-53.1-150-85.9-25-17-38.1-26.6-39.4-29-1.2-2.3-2.7-16.8-4.1-40.7-.5-9.9-1.5-22.3-2.1-27.5-1.6-14.5-.7-100.6 1.4-126.5 4.9-60.7 9.1-94.3 17.8-139.7 24-126.4 69.6-247.2 138.7-367.3 20.4-35.5 45.3-74.4 50.9-79.7 1.7-1.6 12.1-6.7 24.9-12.2 73.1-31.4 145.4-54 224.4-70.1 29-5.9 29.8-6 33.4-4.4z"/>
  <path d="M777.2 939.5c-24.1 4.4-50.4 19.4-66.8 38.2-42.5 48.7-48.3 121.2-14.2 177.1 5.5 9 9.7 14.2 11.5 14.2.8 0 3.7 2.5 6.5 5.5 10.7 11.7 27.6 23.4 43 29.7 14.1 5.7 22.6 7.2 40.8 7.2 14.6 0 17.6-.4 26.5-2.7 12.5-3.3 29.8-11.8 40.3-19.7 24.5-18.5 44.1-49.7 50.7-80.9 5.2-24.7 3.2-56.7-5.1-81.7-14.3-43-48.7-75.1-90.3-84-4.6-1-8.5-2.4-8.8-3.1-.7-1.8-24.1-1.6-34.1.2zm453.8 0c-14.7 2.7-30.8 9.4-43.6 18.1-29.1 19.8-49.1 51.1-56.6 88.8-2.9 14.4-3.2 42.1-.5 56.3 3.4 18.3 14.9 47.7 19.7 50.3 1.1.6 4.5 4.5 7.7 8.8 19.7 26.8 46.6 43.8 76.8 48.7 61.1 9.9 118.9-33.6 134.6-101.4 2.6-11.1 3.7-40.6 2-53.6-1.4-10.3-5.2-26.2-8.1-33.6-1.1-2.7-2-6.4-2-8.2 0-4.3-10.5-21.9-19.4-32.5-23.3-28.1-55.6-43.4-90.8-43.1-6.7 0-15.7.7-19.8 1.4z" />
</svg>
