<?xml version="1.0" standalone="no"?>
<!DOCTYPE svg PUBLIC "-//W3C//DTD SVG 20010904//EN"
 "http://www.w3.org/TR/2001/REC-SVG-20010904/DTD/svg10.dtd">
<svg version="1.0" xmlns="http://www.w3.org/2000/svg"
 width="980.000000pt" height="980.000000pt" viewBox="0 0 980.000000 980.000000"
 preserveAspectRatio="xMidYMid meet">

<g transform="translate(0.000000,980.000000) scale(0.100000,-0.100000)"
fill="#000000" stroke="none">
<path d="M4565 9789 c-1034 -73 -2004 -463 -2805 -1127 -148 -123 -499 -474
-621 -622 -880 -1062 -1270 -2400 -1098 -3765 106 -850 455 -1693 976 -2362
252 -324 562 -636 874 -879 1119 -874 2576 -1218 3969 -938 852 170 1623 553
2280 1130 134 118 401 390 509 519 483 580 823 1244 1001 1955 383 1530 20
3125 -986 4337 -129 156 -397 427 -559 568 -765 662 -1683 1059 -2705 1170
-174 19 -652 27 -835 14z m2049 -2434 c253 -44 506 -176 712 -370 43 -41 84
-75 91 -75 27 0 309 97 426 147 71 30 130 53 132 52 2 -2 -59 -114 -134 -249
-98 -174 -134 -246 -124 -248 8 -2 105 6 215 18 110 12 202 19 205 16 4 -3
-103 -113 -236 -243 l-241 -238 0 -115 c1 -635 -173 -1354 -450 -1869 -167
-310 -435 -657 -731 -947 -385 -376 -790 -627 -1287 -798 -934 -320 -2016
-278 -2834 112 -76 36 -138 69 -138 74 0 4 19 8 43 8 86 0 387 41 547 75 294
62 569 191 1000 473 l144 94 -159 57 c-215 77 -277 103 -430 176 -187 88 -306
166 -409 265 -127 122 -299 340 -282 357 3 3 159 8 347 11 325 5 340 6 312 22
-15 9 -84 50 -153 90 -342 201 -624 416 -734 559 -119 155 -227 406 -261 608
l-7 43 259 -105 c142 -58 261 -104 264 -102 4 1 -26 52 -66 112 -203 308 -361
641 -410 864 -46 209 -46 472 1 655 20 75 54 166 62 166 4 -1 25 -27 47 -58
59 -84 254 -274 385 -376 346 -268 808 -520 1228 -670 365 -131 787 -220 1108
-233 l141 -6 -13 64 c-38 181 -41 406 -9 591 69 390 311 701 680 874 124 58
247 98 355 117 112 20 296 21 404 2z"/>
</g>
</svg>
