<?xml version="1.0" encoding="UTF-8"?><svg id="fibonacci" xmlns="http://www.w3.org/2000/svg" viewBox="0 0 262.78 52.72"><path d="m46.11,27.02c-3.58,8.21-12.12,13.38-22.01,13.38h-5.12l-3.81,8.72H3.22L18.71,13.64h17.08c9.88,0,13.91,5.17,10.32,13.38Zm-12.06,0c1.13-2.58.24-4.16-3.05-4.16h-4.36l-3.63,8.31h4.36c3.29,0,5.55-1.57,6.68-4.16Z"/><path d="m59.46,40.19h-3.24l-3.89,8.92h-11.96l15.49-35.48h17.08c9.88,0,13.91,5.17,10.32,13.38-2.23,5.12-6.35,8.97-11.56,11.15l2.67,10.95h-12.77l-2.14-8.92Zm8.68-17.33h-4.36l-3.63,8.31h4.36c3.29,0,5.55-1.57,6.68-4.16,1.13-2.58.24-4.16-3.05-4.16Z"/><path d="m111.55,40.09l-3.94,9.02h-29.49l15.49-35.48h28.83l-3.94,9.02h-17.08l-1.81,4.16h15l-3.76,8.62h-15l-2.04,4.66h17.74Z"/><path d="m143.89,49.11l6.96-16.17-13.37,12.97h-5.27l-2.28-12.42-6.81,15.61h-10.89l15.49-35.48h9.83l3.3,18.9,19.5-18.9h9.83l-15.39,35.48h-10.9Z"/><path d="m176.05,13.64h11.96l-15.49,35.48h-11.96l15.49-35.48Z"/><path d="m211.73,40.09l-3.94,9.02h-29.49l15.49-35.48h28.83l-3.94,9.02h-17.08l-1.81,4.16h15l-3.76,8.62h-15l-2.04,4.66h17.74Z"/><path d="m231.5,40.19h-3.24l-3.89,8.92h-11.96l15.49-35.48h17.08c9.88,0,13.91,5.17,10.32,13.38-2.23,5.12-6.35,8.97-11.56,11.15l2.67,10.95h-12.77l-2.14-8.92Zm8.68-17.33h-4.36l-3.63,8.31h4.36c3.29,0,5.55-1.57,6.68-4.16,1.13-2.58.24-4.16-3.05-4.16Z"/><path d="m185.27,1.75h.41c.6,0,1.16.04,1.65.14.5.09.92.21,1.26.35.34.14.63.32.89.53.25.21.45.42.6.63.15.21.26.45.35.7.09.25.15.48.17.69s.04.42.04.65v.3c0,.23-.01.44-.04.65s-.09.44-.17.69c-.09.26-.21.49-.35.71-.14.22-.34.43-.6.65-.26.21-.55.39-.89.54-.34.15-.75.27-1.25.35-.5.09-1.05.14-1.66.14h-.41c-.61,0-1.17-.04-1.66-.14-.5-.09-.92-.21-1.25-.35-.34-.15-.64-.33-.89-.54-.26-.21-.46-.43-.6-.65-.14-.22-.26-.45-.35-.71-.09-.26-.15-.49-.17-.69s-.04-.42-.04-.65v-.3c0-.23.01-.44.04-.65s.09-.44.17-.69c.09-.25.21-.49.35-.7.14-.21.34-.42.6-.63.26-.21.55-.39.89-.53.34-.14.76-.26,1.25-.35.5-.09,1.05-.14,1.66-.14Zm2.68,3.9v-.14c0-.22-.04-.43-.11-.62s-.2-.38-.37-.56c-.17-.18-.43-.32-.77-.43-.34-.11-.75-.16-1.23-.16s-.9.05-1.25.16c-.34.11-.6.25-.77.43-.17.18-.29.37-.36.56s-.11.4-.11.62v.12c0,.22.04.43.11.62.07.2.2.39.37.58s.43.34.77.46c.34.11.76.17,1.23.17s.89-.05,1.23-.17c.35-.11.6-.26.77-.44s.29-.38.37-.58c.07-.2.11-.4.11-.62Z"/><path d="m191.23,9.33V3.95h2.47v.95c.09-.09.16-.17.22-.21s.17-.14.34-.27c.17-.13.34-.22.51-.29.17-.07.38-.14.65-.2.27-.06.55-.1.84-.1h.05c.44,0,.82.06,1.15.19.33.13.58.3.76.51.18.21.31.43.39.65.08.22.12.45.12.69v3.46h-2.5v-2.57c0-.38-.1-.68-.29-.91-.19-.22-.49-.33-.9-.33s-.73.12-.96.36c-.23.24-.35.56-.35.95v2.5h-2.49Z"/><path d="m205.04,9.33V3.92h-2.94V1.89h8.49v2.03h-2.94v5.41h-2.6Z"/><path d="m211.19,9.33V1.89h2.49v3c.65-.71,1.49-1.06,2.53-1.06h.05c.44,0,.82.06,1.15.19.33.13.58.3.76.51.18.21.31.43.39.65.08.22.12.45.12.69v3.46h-2.5v-2.57c0-.38-.1-.68-.29-.91-.19-.22-.49-.33-.9-.33s-.73.12-.96.36c-.23.24-.35.56-.35.95v2.5h-2.49Z"/><path d="m227,7.37v.02c0,.18-.02.35-.06.51-.04.16-.14.34-.29.55-.15.2-.35.38-.6.52-.25.14-.61.27-1.07.37-.46.1-1,.15-1.61.15h-.49c-.58,0-1.09-.06-1.54-.17-.45-.11-.8-.26-1.06-.44s-.48-.4-.64-.65-.28-.5-.33-.74c-.06-.24-.09-.5-.09-.77v-.2c0-1.81,1.21-2.71,3.64-2.71h.5c.45,0,.85.03,1.21.09.36.06.67.15.92.25.25.11.47.24.66.4.19.16.33.32.44.48.11.16.2.35.27.55.07.2.11.39.13.57s.03.37.03.57v.3h-5.36c.09.66.58.99,1.49.99h0c.22,0,.42-.02.59-.06.17-.04.31-.08.4-.13.09-.05.17-.11.23-.18.06-.07.1-.12.12-.17.02-.04.03-.08.04-.11h2.46Zm-3.89-2.25c-.81,0-1.29.27-1.42.81h2.84c-.1-.54-.58-.81-1.42-.81Z"/><path d="m235.68,9.33h-3.17l-2.66-7.44h2.9l1.55,4.91,1.37-4.91h2.93l1.38,4.83,1.5-4.83h2.67l-2.66,7.44h-3.02l-1.42-4.7-1.38,4.7Z"/><path d="m248.12,8.61c-.5.55-1.27.82-2.31.82h-.1c-.77,0-1.34-.17-1.72-.5-.38-.33-.56-.74-.56-1.23v-.12c0-.47.15-.83.46-1.08s.82-.42,1.54-.48l2.37-.23c.18-.03.27-.11.27-.26,0-.08-.02-.15-.06-.2-.04-.05-.14-.1-.31-.15s-.4-.06-.71-.06h-.04c-.24,0-.45.02-.61.06-.16.04-.28.09-.34.16-.06.07-.1.13-.12.17-.02.04-.03.09-.04.17h-2.31v-.06c0-.18.01-.34.04-.47.03-.13.1-.29.22-.47.12-.18.29-.33.5-.44.21-.11.52-.21.93-.29.41-.08.9-.12,1.46-.12h.51c.59,0,1.09.04,1.52.12s.75.17.97.28.39.25.52.42.21.32.23.45c.03.13.04.28.04.46v1.99c0,.15.07.23.21.23h.27v1.57h-2.07c-.46,0-.72-.24-.8-.72Zm-.05-1.59v-.23l-1.65.32c-.22.04-.38.09-.47.16-.09.07-.14.17-.14.3h0c0,.16.06.29.18.4.12.11.32.16.6.16.44,0,.8-.11,1.07-.33.27-.22.41-.48.41-.77Z"/><path d="m253.91,1.89v7.44h-2.49V1.89h2.49Z"/><path d="m257.14,1.89v7.44h-2.49V1.89h2.49Z"/></svg>