<?xml version="1.0" encoding="UTF-8"?><svg id="logotipo" xmlns="http://www.w3.org/2000/svg" viewBox="0 0 84.34 30.21"><path d="m26.77,22.46l1.71-1.66h1.26v4h-1.49v-1.9l-1.49,1.44-1.49-1.44v1.9h-1.49v-4h1.26l1.71,1.66Z"/><path d="m33.57,21.77v-.39h1.37v3.43h-1.37v-.39c-.33.34-.83.51-1.49.51s-1.14-.17-1.47-.5c-.31-.31-.47-.75-.47-1.33s.16-1.02.47-1.34c.33-.33.82-.49,1.47-.49s1.15.17,1.49.51Zm-.2,1.7c.13-.08.2-.2.2-.38s-.07-.3-.2-.38c-.16-.09-.43-.14-.83-.14s-.67.04-.83.14c-.13.08-.2.2-.2.38s.07.3.2.38c.16.09.43.14.83.14s.67-.05.83-.14Z"/><path d="m38.7,21.73v-.36h1.37v2.8c0,.64-.16,1.09-.48,1.38-.39.34-1.08.51-2.09.51-.62,0-1.25-.1-1.88-.29v-1.26c.57.23,1.14.34,1.71.34s.92-.05,1.11-.15c.16-.08.25-.25.26-.49-.34.32-.83.47-1.49.47s-1.14-.15-1.47-.46c-.31-.29-.47-.71-.47-1.25s.16-.96.47-1.25c.33-.31.82-.46,1.47-.46s1.15.16,1.49.47Zm-.2,1.63c.13-.07.2-.18.2-.34s-.07-.27-.2-.34c-.16-.08-.43-.12-.83-.12s-.67.04-.83.12c-.13.07-.2.18-.2.34s.07.27.2.34c.16.08.43.12.83.12s.67-.04.83-.12Z"/><path d="m43.83,21.77v-.39h1.37v3.43h-1.37v-.39c-.33.34-.83.51-1.49.51s-1.14-.17-1.47-.5c-.31-.31-.47-.75-.47-1.33s.16-1.02.47-1.34c.33-.33.82-.49,1.47-.49s1.15.17,1.49.51Zm-.2,1.7c.13-.08.2-.2.2-.38s-.07-.3-.2-.38c-.16-.09-.43-.14-.83-.14s-.67.04-.83.14c-.13.08-.2.2-.2.38s.07.3.2.38c.16.09.43.14.83.14s.67-.05.83-.14Z"/><path d="m47.33,22.63h-1.67v-1.26h4v.97l-1.73,1.2h1.79v1.26h-4.11v-.97l1.73-1.2Z"/><path d="m51.59,20.46c0,.46-.27.69-.8.69s-.8-.23-.8-.69.27-.69.8-.69.8.23.8.69Zm-1.49,4.34v-3.43h1.37v3.43h-1.37Z"/><path d="m56.51,23.2v1.6h-1.37v-1.6c0-.46-.3-.69-.91-.69s-.91.23-.91.69v1.6h-1.37v-3.43h1.37v.38c.31-.33.77-.5,1.37-.5,1.22,0,1.83.65,1.83,1.94Z"/><path d="m61.59,23.09c0,.18-.02.33-.05.46h-3.33c.1.19.43.29.98.29.45,0,.74-.06.88-.17h1.45c-.22.84-1,1.26-2.33,1.26-1.6,0-2.4-.61-2.4-1.83s.8-1.83,2.4-1.83,2.4.61,2.4,1.83Zm-3.38-.46h1.95c-.1-.19-.43-.29-.98-.29s-.87.09-.98.29Z"/><line x1="22.64" y1="20.8" x2="22.64" y2="24.8" style="fill:none; stroke:#000; stroke-miterlimit:10; stroke-width:.25px;"/><path d="m9.98,9.08h-4.03v2.8h-3.41V2.95h7.44c2.82,0,4.24.98,4.24,2.95v.19c0,1.99-1.41,2.99-4.24,2.99Zm-4.03-3.9v1.67h3.62c.75,0,1.13-.27,1.13-.82v-.04c0-.54-.38-.82-1.13-.82h-3.62Z"/><path d="m18.39,8.81v3.06h-3.41V2.95h8.11c2.5,0,3.76.76,3.76,2.29v.13c0,.3-.06.58-.18.83s-.28.45-.47.6c-.2.15-.39.27-.58.36-.19.09-.38.16-.57.2.57.13,1.02.37,1.34.74.33.36.49.83.49,1.39v1.32c0,.46.06.8.17,1.01v.06h-3.48c-.07-.08-.11-.24-.11-.47v-1.04c0-.53-.14-.92-.41-1.17-.28-.25-.74-.38-1.4-.38h-3.26Zm0-3.7v1.54h3.91c.69,0,1.03-.26,1.03-.77h0c0-.52-.34-.77-1.03-.77h-3.91Z"/><path d="m27.82,2.95h9.88v2.18h-6.52v1.12h6.38v2.17h-6.38v1.22h6.61v2.23h-9.97V2.95Z"/><path d="m38.77,11.87V2.95h4.68l2.74,5.02,2.78-5.02h4.49v8.93h-3.37v-5.57l-3.13,5.57h-1.74l-3.12-5.57v5.57h-3.32Z"/><path d="m58.01,2.95v8.93h-3.4V2.95h3.4Z"/><path d="m59.16,2.95h9.88v2.18h-6.52v1.12h6.38v2.17h-6.38v1.22h6.61v2.23h-9.97V2.95Z"/><path d="m73.53,8.81v3.06h-3.41V2.95h8.11c2.5,0,3.76.76,3.76,2.29v.13c0,.3-.06.58-.18.83s-.28.45-.47.6c-.2.15-.39.27-.58.36-.19.09-.38.16-.57.2.57.13,1.02.37,1.34.74.33.36.49.83.49,1.39v1.32c0,.46.06.8.17,1.01v.06h-3.48c-.07-.08-.11-.24-.11-.47v-1.04c0-.53-.14-.92-.41-1.17-.28-.25-.74-.38-1.4-.38h-3.26Zm0-3.7v1.54h3.91c.69,0,1.03-.26,1.03-.77h0c0-.52-.34-.77-1.03-.77h-3.91Z"/></svg>